<svg xmlns="http://www.w3.org/2000/svg" viewBox="0 0 1024 245"><path fill="#e8f0fe" d="M1022.97 203.21H32.2L55.2 0h924.14l43.63 203.21z"/><circle cx="184.63" cy="121.94" r="25.41" fill="#fff"/><circle cx="252.4" cy="106.61" r="57.12" fill="#fff"/><circle cx="321.22" cy="108" r="26.24" fill="#fff"/><circle cx="357.18" cy="108" r="19.2" fill="#fff"/><circle cx="395.48" cy="97.8" r="25.38" fill="#fff"/><circle cx="423.12" cy="91.9" r="12.03" fill="#fff"/><circle cx="442.44" cy="102.14" r="16.24" fill="#fff"/><circle cx="462.76" cy="108.65" r="12.12" fill="#fff"/><circle cx="493.29" cy="109.66" r="22.77" fill="#fff"/><circle cx="561.5" cy="86.89" r="25.46" fill="#fff"/><circle cx="590.5" cy="61.43" r="29" fill="#fff"/><circle cx="621.42" cy="56.32" r="9.71" fill="#fff"/><circle cx="640.83" cy="53.9" r="13.43" fill="#fff"/><circle cx="681.03" cy="63.82" r="16.59" fill="#fff"/><circle cx="710.98" cy="69.23" r="16.59" fill="#fff"/><circle cx="749.24" cy="71.46" r="30.02" fill="#fff"/><circle cx="775.1" cy="88.95" r="9.63" fill="#fff"/><circle cx="788.88" cy="100.06" r="11.76" fill="#fff"/><path d="M183.26 95.88a28.9 28.9 0 0122.35 10.55m115.52-25.34a26.89 26.89 0 0125 17.2m-42.3-17.77a57.38 57.38 0 014.26 11.38m106.09-12.04a27.53 27.53 0 014.3 6.1M369.69 96a25.38 25.38 0 011.31-7m63.09-3.2a13.06 13.06 0 011.52 6.13m22.3 3.61a17.57 17.57 0 011.09 4.68m12.3 1.78a26.15 26.15 0 013-5.93m86.21-35.16a31.47 31.47 0 0110.34 1.63m42.84-12.88a10.5 10.5 0 017.77-3.66m5.54 7.86a13.93 13.93 0 015.57-11.35m60.06 8.69a17.09 17.09 0 015.46 12.55m20.53 7.71a31.28 31.28 0 018.2-20.77m52.93 20.77a30.53 30.53 0 01-2.49 12.11m7.95 5.17a11.15 11.15 0 01-1.11 5" fill="none" stroke="#e8f0fe" stroke-linecap="round" stroke-linejoin="round"/><path fill="#aecbfa" d="M240.78 97.8l71.93 19.68 7.83-7.82-3.35-11.86 28.32 12.53-57.04 19.82 48.84 32.5h24.59l-3.13-12.37-12.57-6.41-5.31-7.9 40.24 17.14-2.08-7.9-4.72-1.04-6.31-8.05 37.26 20.42 24.3 6.11-103.91 31.67-12.53-32.48-55.74-14.49-13.3 3.5 23.27-36.82-8.44 4.35-4.34-10.38h-5.12l-8.69-10.2zM647.5 47.23l88.88 33.8 137.58 34.95-12.58 21.8-54-17.01-82.88-9.99 6.58-23.89-59.41-9.37 4.7-13.7-16.9-1.43-11.97-15.16"/><path fill="#e8f0fe" d="M185.81 127.21l54.97-29.41 8.69 10.2h5.12l4.34 10.38 8.44-4.35-23.27 36.82 13.3-3.5 55.74 14.49 12.53 32.48-81.82 19.43-58.04-86.54zM317.19 97.8L293 112.09l19.71 5.39 7.83-7.82-3.35-11.86zm-28.72 32.35l57.04-19.82 64.03-22.13 34.32 25.11-14.28 3.71 74.89 21.72-106.66 13.71-29.79-16.33 6.31 8.05 4.72 1.04 2.08 7.9-40.24-17.14 5.31 7.9 12.57 6.41 3.13 12.37h-24.59l-48.84-32.5z"/><path fill="#aecbfa" d="M409.54 88.2l34.32 25.11-14.28 3.71 85.06 25.75-43.43-22 13.75-5.74-53.23-18.5-22.19-8.33z"/><path fill="#e8f0fe" d="M471.21 120.77L647.5 47.23l11.97 15.16 16.9 1.43-4.7 13.7 59.41 9.37-6.58 23.89 82.88 9.99 54 17.01-7.28 29.58-103.54-13.62H553.35l73.53-31.69-112.24 20.72-43.43-22z"/><path d="M979.34 0L964 60.76l-15-28.33-20.6 74.86-20.61-35.83-12.58 28.6L881 7.6l-17.13 121-21.67-71.13-18.2 75-19.55-32.28-17 49.43c-17-3-34 1.17-54.27 1.17-20.54 0-41.55-6.94-54.07-5.88s-29.75 7-57.79 4.13-64 1.75-64 1.75l66.9-27.52C573.31 130 524 132.51 524 132.51c-25 0-53.57 9.17-53.57 9.17-53.57 2.83-72.7 10.82-72.7 10.82l7.47 4.09 10.5 2.64-23.58 5.9-23.92 3.1c-10.09 1.7-26.27 9.38-37.19 15.11-1.23-2.33-2.39-2.66-2.39-2.66a7.63 7.63 0 00-1.44 3 15.34 15.34 0 00-2.58-5.72 12.41 12.41 0 00-3.59 6.2 8.74 8.74 0 00-1.44-4.07 14.1 14.1 0 00-4.26 4.65 10.74 10.74 0 00-2.86-6.45c-2.83 2-2.84 4.36-2.82 4.79a9.68 9.68 0 00-1.81-5.48c-4 2.57-5.65 10.1-5.65 10.1a8.17 8.17 0 00-1.2-4.79c-4 .86-5.07 3.22-5.07 3.22-2.15-7.37-6.64-9.18-6.64-9.18-1.92 6.78.58 11.2.58 11.2a14.72 14.72 0 00-6.88 1.55 8.93 8.93 0 001.47-6 6.75 6.75 0 00-4.15 2.84 9.71 9.71 0 00-.37-6.4 9.51 9.51 0 00-4.32 3.49c1-4.21-.61-9.65-.61-9.65-3.4 2.29-4.49 7.8-4.49 7.8a3 3 0 00-1.2-1.64 4.55 4.55 0 00-1.41 3.83c-11.67-9.68-18.57-12.39-21.66-13.15a13 13 0 002.28-5.89 7.88 7.88 0 00-5.4 1.73 12.52 12.52 0 000-9c-2.74.55-5.4 5.4-5.4 5.4a15.27 15.27 0 00-2.92-10.16c-7.06 5.06-10 10.84-11.11 14.15L165.25 60.76 138 113.81l-15.43-74.14-9.64 66.76L79.65 0h-5.3l-8.68 27.73L55.2 0 0 .25V245h1024V0zM776.06 182.87c-25.17-6.12-70.81 2-70.81 2-27.82-2.45-49 4.57-49 4.57a46.88 46.88 0 00-25-9.56c60.4-23.07 130.2-20.71 152.45-19.21z" fill="#fff"/><path fill="#fff" d="M340.89 135.97l-15.22 14.25 16.84-11.84-1.62-2.41zm27.13.15l-8 8 1.63.69 8.67-5.76-2.3-2.93zm61.56-19.1l-20.04 19.1 20.04-10-1.81-5.35 4.96-2.79-3.15-.96zM333.18 184l1.69-9.57 1.98 9.57 1.9-15.47 2.57 11.95 2.2-12.25 2.71 10.57m7.78-5l.8-5.13 1.1 5.13h-1.9zm7.26-3.17l1.02-5.5 2.42 6.2 1.18-5.78 2.35 5.08m16.03-4.14l.35-2.69a.39.39 0 01.76 0l.53 2.71L389 166l.54-3.72.82 4.21 4.05-1 .66-5.92.6 5.56.82-.44.21-2.74a.2.2 0 01.39 0l.5 3 1.48-.77.21-2.57.77 2.57m376.75 19.87s-.19-5.52-5-12.79c0 0-2 2.91-2 8.53a15.46 15.46 0 00-5.52-4.56s-1.55 1.84 1.65 9.69zm-21.6.48a27 27 0 00-.48-6.44 6.91 6.91 0 00-4.27 3.79 12.05 12.05 0 000-7.61s-5.13 3.39-6.1 8.52a12.65 12.65 0 00-3-4.7 14 14 0 00-1.84 9.74c1.07 5.42 15.69-3.3 15.69-3.3zm-30.02 5.07a19.76 19.76 0 00.29-6.33 8.12 8.12 0 00-2.92 1.86 19.61 19.61 0 00-.85-6.88 8.41 8.41 0 00-5.22 3.68s.57-1-1.09-4.65a9 9 0 00-3.44 7.64zm-17.84-4.47s.81-4.69-1.22-8.45a6.7 6.7 0 00-2.83 3.44s.16-1.42-1.21-4.37a9.56 9.56 0 00-2.8 6.18s.21-1.25-3.33-3.33a5.93 5.93 0 00-.19 3.5 5.24 5.24 0 00-3.48-1.13 13.17 13.17 0 001.58 6.07z"/><path d="M722.67 192.45s6.82-6.16 10.64-18.18" fill="none" stroke="#fff" stroke-miterlimit="10"/><circle cx="733.31" cy="174.27" r="1.27" fill="#fff"/><circle cx="683.26" cy="172.78" r="1.27" fill="#fff"/><path fill="none" stroke="#fff" stroke-miterlimit="10" d="M731.35 179.45l4.15-1.36m-6.66 6.26l-1.9-3.91m-41.53 5.05a45.15 45.15 0 00-2.15-12.71m1.5 4.65l2.35-2.71m-2.07 5.96l-3.43-2.44"/><path d="M788.25 149.7l-2.56-8.31-2.47 10.53-2.55-8.47-1.89 8.8-8.08.35-3.7-14.82-2.81 15.22-2-10-1.6 10-5.29-.95-2.55-11.7-1.6 6.65-.86-8.88a.4.4 0 00-.79-.05l-2.16 9.74-1-8.35-3.44 12.6-6.37-1.83-1.91-16.12-2.19 16v8.06l49.22-1.45 7.47-3.68zm-92.59-2.81l-1.51-10.63-2.64 11.36-8.41-1.25-2.17-9.56a.4.4 0 00-.78 0L678 147.1l-5.6-1.1-.81-15.53-1.9 17.14-1.09-10.79a.32.32 0 00-.64 0l-1.28 11.67-5-.59-2-10-.87 11.53h-7.27l-1.25-8.84-1.51 9.71-1.49-5.6a.49.49 0 00-.95 0l-1.34 5.82-3.25-13-2.26 13h-5.76l-.81-11.08-1.19 11.56-2-1.19-.39-7.14a.26.26 0 00-.51 0l-1.74 8.33-1.57-14.2-2.94 13.26-4.58-1.29-1.07-10.09-1.87 7.32-1.63-10.27-1.75 9.52-1.57-6.83-2.88 11-4.32-.44-1.2-6.39a.63.63 0 00-1.23-.06l-2 6.77-13-.44-1.25-6.7-2.26 7.14-.97-5.48-1.44 5.2h-3.96l-.94-4.57-.75 5.13h-2.69l-.89-4.43-1.13 5 82.34 6.26 45.31-1.41z" fill="#fff"/><path fill="none" stroke="#fff" stroke-linecap="round" stroke-miterlimit="10" d="M593.35 142.07V150m2.12-25.5v7.93m-2.58-6.38v7.93m5.09-9.48v7.93m5.43-7.45v3.69m2.23-5.09v3.69m2.86-3.07v3.69m-23.29-1.53v7.93m-2.13-6.82v7.93m-7.64-9.77v7.93m-2.16-6.09v7.93m-2.71-8.31v7.93m-9.4-8.2v7.93m-3.17-6.28v7.93m-2.92-7.07v7.93m-3.33-7.93v7.93m-3.19-9.79v7.93m-2.06-6.07v7.93m-2.54-8.79v7.93m-10.05-7.33V137m-1.6-6.21v7.93m-1.98-9.12v7.93m-2.52-6.48v7.93m-2.46-6.93v7.93m-3.42-9.39v7.93m-2.64-8.92v7.93m-4.82-6.1v7.93m-2.05-8.57v7.93m-2.62-6.29v7.93m-2.95-8.93v7.93m-4.9-6.06v7.93m-2.86-7.46v7.93m-2.04-8.67v7.93m-2.34-6.41v7.93m-4.33-8.5v7.93m-63.76 1.33v7.93m-2.49-6.41v7.92m-5.32-6.94v7.93m-3.08-8.34v7.92m-2.31-6.05v7.93m-2.9-8.34v7.93m-2.42-6.62v7.93"/><path fill="#fff" d="M538.48 127.89l-1.45 6.4 3.25.26-1.8-6.66zm26.05-1.84l-1.52 6h3.39l-1.87-6zm24.11-3.24l-1.31 6.79 3.17-.27-1.86-6.52zm-104.81 16.17l-.69-4.69-.76 6.07 1.45-1.38zm-5.46 1l-1.66-4.96-1.31 6.68-1.94.21-1.03-4.38-1.15 5.24h-2.38l-.83-6.75-.69 7.31h-2.07l-1.38-3.97-.62 3.97-3.05.42-1.14-3.77-.55 4.04-10.67 1.04-.97-4.7-.97 5.04h-3.04l-1.17-5.04-1.18 5.7-2.28-.52-.9-4.31-.89 4.83h-3.77l-1.48-4.15-1.25 4.74-1.59-3.11-.48 3.11.62 2.07h30.57l20.7-4.01-1.45-4.73z"/><path fill="none" stroke="#e8f0fe" stroke-linecap="round" stroke-linejoin="round" d="M76.32 167.36V25.77m0 45.69l-13.5-13.49m13.5 43.18l19.66-19.66m-19.66 54.48l-22.73-22.73m69.51-41.78v82.84m0-45.65l8.8-8.79m-8.8 36.11l-8.76-8.76m50.94-54.79v93.15m9.93-74.35l-9.93 9.93m0 41.62l-20.63-20.63m660.87-2.63v62.37m9.37-47.11l-8.68 8.68m-13.8 13.27l13.11 13.12m36.95-86.27v79.71m8.3-60.64L843 110.4m-11.78 24.37l11.25 11.24m39.08-105.53v105.53m5.89-70.41l-5.89 5.89m-10.44 34.27l10.44 10.44m26.62-37.25v64.93m10.19-49.74l-10.19 10.19m-10.19 14.8l10.19 10.19m42.31-85.42v82.22m10-56.8l-9.82 9.82m-11.78 9.44l11.6 11.59"/><circle cx="268.29" cy="155.23" r="1.56" fill="#fff"/><path d="M254.1 174.11s4.37-12.82 14.19-18.88m-6.67 5.86l-.99-4.71m-2.67 9.81h4.41m33.12 21.16s.78-10.71 6-16.9" fill="none" stroke="#fff" stroke-miterlimit="10"/><circle cx="269.17" cy="169.73" r="1.56" fill="#fff"/><circle cx="301.48" cy="170.54" r="1.56" fill="#fff"/><path d="M269.53 170.94s2.67 8.66 1.85 13.8m26.95-8.99l-2.3-4.81m.72 9.44l3.89-.93m-33.09-4.03l3.25.65m-.26-2.5l1.93-1.94" fill="none" stroke="#fff" stroke-miterlimit="10"/><path d="M473.29 25.48l-1.38.35a.93.93 0 00-.6 1.32l4.25 8.47 8.11-2.06-9.13-7.79a1.42 1.42 0 00-1.25-.29z" fill="#8ab4f8"/><path d="M475.56 35.62l-4.25-8.47a.93.93 0 01.6-1.32l.25-.06 4.77 9.5z" fill="#fff"/><path d="M463.336 38.207l28.472-7.083a2.34 2.34 0 012.836 1.706 2.34 2.34 0 01-1.704 2.845l-28.472 7.083-1.132-4.551z" fill="#fff"/><path d="M463.79 34.42a1.35 1.35 0 00-1 1.64l1.09 4.42 4.81-1.2-3.53-4.4a1.35 1.35 0 00-1.37-.46z" fill="#fff"/><path d="M464.49 42.89L493 35.8a2.33 2.33 0 001.77-2.29l-30.68 7.63z" fill="#8ab4f8"/><path d="M478.83 50l-1.38.34a.93.93 0 01-1.16-.88L476 40l8.12-2-4.37 11.17a1.39 1.39 0 01-.92.83z" fill="#8ab4f8"/><path d="M476 40l.25 9.47a.93.93 0 001.16.88l.25-.06-.28-10.63z" fill="#fff"/><path fill="none" stroke="#fff" stroke-linecap="round" stroke-miterlimit="10" stroke-width="1.24" d="M459.28 39.67l-170.81 40.2 171.72-36.98"/><path fill="none" stroke="#aecbfa" stroke-miterlimit="10" d="M706.75 169.54h48.41"/><path d="M731.41 142a7.05 7.05 0 01-.21-4" fill="none" stroke="#f4afb6" stroke-linecap="round" stroke-miterlimit="10" stroke-width="1.98"/><path d="M732.21 140.79a5.73 5.73 0 002 3.61 4.71 4.71 0 003.78 1l.48 3.19a8 8 0 01-6.27-1.65 8.89 8.89 0 01-3.16-5.65 3.93 3.93 0 01-.06-.48" fill="#56a55c"/><path fill="#f4afb6" d="M737.55 143.8h3.26v2.58h-3.26z"/><circle cx="739.79" cy="141.49" r="3.47" fill="#ee675c"/><path d="M739 145.5h1.56a3.37 3.37 0 012.86 2.7l-.18 8.2h-10.45l1.1-11" fill="#56a55c"/><path d="M734.08 156.4l-3 13.64h4.1l3-9.41.66 9.41H743s.12-5.2.27-13.64z" fill="#343659"/><path fill="#f4afb6" d="M709 108.73h4.8v7.15H709zm14.23 14.37a41.73 41.73 0 019.51 12s.87 2.09-.33 3.3c0 0-1.42 1.34-2.42 0s.17-3 .17-3-2.62-3.76-9-8.9z"/><path d="M718.65 144.47a83.76 83.76 0 009.83 25.53h-8.11a52.39 52.39 0 01-8.87-15.88s1.68 13.48 2.5 15.88h-7.33a57.83 57.83 0 01-3.1-36.29h14.32v1.09a41 41 0 00.76 9.67z" fill="#f9ab00"/><path d="M717.85 136.52h-19.33l3.93-18.4-5.85-5.84 4.39-4.39 6.22 5.25s10.18 2.06 16 10a23.29 23.29 0 01-4.76 6.61z" fill="#4285f4"/><path d="M720.1 113.25h-5l-7.83-.06a1.89 1.89 0 00-1.9 1.87l-.12 15.94a1.87 1.87 0 001.87 1.89l11.21.08a1.88 1.88 0 001.89-1.87l.06-8.62a1.87 1.87 0 001.63-1.84l.06-5.51a1.89 1.89 0 00-1.87-1.88z" fill="#4b4d75"/><path d="M701 107.89L682.28 90.6a.63.63 0 00-.83 0 .62.62 0 00-.06.84l1.93 2.32v.62a2.89 2.89 0 00.79 2L697.92 111z" fill="#f4afb6"/><path d="M712.72 170c-1.48-6.44-3.69-18.41-2-27.12l1.22.24c-.71 3.64-1.37 12.09 2 26.88z" fill="#f29900"/><path d="M710.79 115.12a1.87 1.87 0 00-1.86-1.89h-1.67a1.89 1.89 0 00-1.9 1.87l-.11 15.9a1.87 1.87 0 001.87 1.89h3.66v-10.52a3.59 3.59 0 002.59 1.12h1.22v2.59H717v-2.59h3.31v-1h-6.9a2.59 2.59 0 01-2.58-2.58z" fill="#343757"/><path d="M709.88 137.59a3.39 3.39 0 010-6.77h10.6a3.39 3.39 0 110 6.77z" fill="#ea4335"/><circle cx="709.88" cy="134.21" r="3.38" fill="#c5221f"/><circle cx="709.88" cy="134.21" r="1.74" fill="#da5040"/><path d="M741.77 154.51h-4.06a1.07 1.07 0 01-1.07-1.08v-5.23a3.1 3.1 0 013.1-3.11h1.85l1.26 8.34a1.08 1.08 0 01-1.08 1.08z" fill="#1967d2"/><path d="M741.49 145.09a3.11 3.11 0 013.11 3.11v5.24a1.07 1.07 0 01-1.07 1.07h-4.07a1.07 1.07 0 01-1.07-1.07v-5.24a3.11 3.11 0 013.11-3.11z" fill="#4285f4"/><path d="M739.54 149.94v-1.74a2 2 0 012-1.95h0a2 2 0 012 1.95v1.74" fill="none" stroke="#265bb6" stroke-miterlimit="10"/><circle cx="742.19" cy="144.47" r="1.79" fill="#ee675c"/><circle cx="763.83" cy="167.99" r="1.27" fill="#fff"/><path d="M755.22 184s.06-8.52 8.61-16m-5.58 6.27l3.9-1.15m-5.2 3.74l-1.84-2.97" fill="none" stroke="#fff" stroke-miterlimit="10"/><path d="M711.63 100.06a5.41 5.41 0 00-5.13 5.6 6.71 6.71 0 0010.5 5.89 2.66 2.66 0 012.25.27c1 .72 3.24 4.52 7.9 4.52s5.06-4 5.28-5.78a14.78 14.78 0 006.78 2.14c3.4 0 4.58-2.19 4.58-4.23s-.9-3-2.61-3.85c0 0 1.75 1.87 1 3.27s-4 2.29-6.82-1a7.18 7.18 0 00-6.11-2.75s-3.08.77-3.25 3.71a11.9 11.9 0 01-6-3.49c-2.25-2.66-4.59-4.18-8.37-4.3z" fill="#ee675c"/></svg>